<svg xmlns="http://www.w3.org/2000/svg" viewBox="0 0 333.2 125"><path d="M62.3 53.4l17.9 34.2-36.1-34.2 36.2-34.2-18 34.2zm-24.9 0L19.5 87.6l36.2-34.2-36.2-34.3 17.9 34.3z" fill="#0086b3"/><path d="M111.4 71.4H92.2c-3.2 0-4.1-.7-4.1-3.4 0-.8.2-2.1.7-2.9l17.8-26c.1-.1.1-.3.1-.4 0-.2-.2-.3-.5-.3H89.8c-.5 0-1-.3-1-.8v-2.3c0-.5.4-.8 1-.8h17.7c2.8 0 4.2.5 4.2 3.3 0 .9-.3 2.2-.8 2.9L93.1 66.6c-.1.2-.1.3-.1.4 0 .2.1.3.5.3h17.9c.5 0 1 .3 1 .8v2.3c0 .6-.5 1-1 1zM131.5 71.8c-8.1 0-12.8-4.3-12.8-13.8V35.3c0-.5.4-.9.9-.9h2.7c.5 0 .9.4.9.9v22.6c0 6.4 2 9.9 8.2 9.9s8.2-3.4 8.2-9.9V35.3c0-.5.4-.9.9-.9h2.7c.5 0 .9.4.9.9v22.6c.2 9.6-4.5 13.9-12.6 13.9zM173.7 71c-2.4.4-5.2.7-9.9.7-6.2 0-12.9-4.1-12.9-15.5v-6.7c0-12.1 7-15.5 13.4-15.5 4.6 0 7.6.4 9.5.7.4.1.8.2.8.7v2.5c0 .3-.2.5-.6.5h-.2c-2.9-.2-5.2-.3-9.5-.3-4.6 0-8.8 2.5-8.8 11.5v6.7c0 8.2 3.7 11.5 8.4 11.5 3 0 5.1-.2 6.3-.3V53.2c0-.5.3-1 .9-1h2.7c.5 0 .9.4.9 1v16.7c-.1.6-.4 1-1 1.1zM206.1 41.3H196c-2.3 0-3.2.8-3.2 3.4v4.5h12.9c.5 0 1 .4 1 1v4.7c0 .5-.4 1-1 1h-12.9v14.5c0 .5-.4 1-1 1h-6.5c-.5 0-1-.4-1-1V44.6c0-9.1 5.7-10.7 12.2-10.7 5.4 0 7.9.4 9.6.6.7.1 1 .3 1 1v4.6c0 .7-.4 1.2-1 1.2zM234.6 59.6h-15.9v.1c0 2.8 1.2 5.4 5.1 5.4 3.1 0 7.6-.2 9.6-.4h.1c.5 0 .9.2.9.8v3.8c0 .8-.2 1.1-1 1.3-3.2.8-5.9 1.2-10.2 1.2-6 0-12.5-3.2-12.5-12.8v-3.5c0-8 4.7-13.1 12.6-13.1s12.3 5.6 12.3 13.1v2.9c0 .8-.4 1.2-1 1.2zm-6.9-5.1c0-3.7-1.7-5.5-4.5-5.5s-4.6 1.9-4.6 5.5v.2h9.1v-.2zM269.2 71.4h-7.6c-.5 0-.7-.5-1-1l-6.7-12.6h-.5c-1 0-2.6-.1-3.5-.1v12.7c0 .5-.4 1-1 1h-6.5c-.5 0-1-.4-1-1V37c0-1.7.7-2.1 2.2-2.4 2.3-.3 6.5-.6 10.1-.6 8.5 0 15 2.8 15 11.7v.6c0 5.3-2.8 8.5-6.4 10l7.5 14.1c.1.2.1.4.1.5 0 .3-.2.5-.7.5zm-9-25.8c0-3-2.3-4.4-6.5-4.4-.7 0-3.3.1-3.9.1v9.6c.5 0 3 .1 3.5.1 5.2 0 6.9-1.3 6.9-4.7v-.7zM287.3 71.9c-4.1 0-8.6-.4-10.6-.7-.9-.2-1.4-.6-1.4-1.7V36.4c0-1.1.5-1.6 1.4-1.7 2-.3 6.5-.7 10.6-.7 9.9 0 15.9 5.2 15.9 15.7v6.4c0 10.5-6 15.8-15.9 15.8zm7.4-22.2c0-6.7-2.9-8.5-7.4-8.5-1.2 0-2.8 0-3.5.1v23.3c.7 0 2.3.1 3.5.1 4.5 0 7.4-1.8 7.4-8.5v-6.5z"/></svg>